:version 1.10
:name ASF
:units
  mass 1
  length 1
  angle deg
:documentation
  ASF file generated by Kaydara
:root
  axis xyz
  order  tx ty tz rx ry rz
  position 0 0 0
  orientation 0 0 0
:bonedata
  begin
    id 1
    name RightUpLegDummy
    direction -0.718183 -0.695806 0.00816078
    length 4.904
    axis 0 0 0 xyz
  end
  begin
    id 2
    name RightUpLeg
    direction 3.53373e-006 -0.995788 0.0916898
    length 17.4976
    axis -3.49089 -0.000906625 0.000286804 xyz
    dof rx ry rz
  end
  begin
    id 3
    name RightLeg
    direction 0.00371092 -0.995096 -0.0988419
    length 16.5821
    axis 3.68512 0.0193738 -0.131023 xyz
    dof rx ry rz
  end
  begin
    id 4
    name RightFoot
    direction 0.00079151 -0.46099 0.887405
    length 3.77069
    axis 4.81691e-005 -0.120479 -0.188788 xyz
    dof rx ry rz
  end
  begin
    id 5
    name RightToes
    direction 0 0 0
    length 0
    axis 0 0 0 xyz
    dof rx ry rz
  end
  begin
    id 6
    name SpineDummy
    direction 8.3039e-015 1 4.57515e-016
    length 4.6813
    axis 0 0 0 xyz
  end
  begin
    id 7
    name Spine
    direction -3.15643e-008 0.999988 0.00495137
    length 10.1015
    axis -0.001389 0.000121418 2.40972e-006 xyz
    dof rx ry rz
  end
  begin
    id 8
    name Spine1
    direction 0 0 0
    length 0
    axis -0.001389 0.000121451 1.30017e-006 xyz
    dof rx ry rz
  end
  begin
    id 9
    name HEadDummy
    direction -1.99912e-008 0.999999 0.00127422
    length 3.43865
    axis -0.001389 0.000121451 1.30017e-006 xyz
  end
  begin
    id 10
    name HEad
    direction 0 0 0
    length 0
    axis 0 0 0 xyz
    dof rx ry rz
  end
  begin
    id 11
    name LeftShoulder1Dummy
    direction 0.998891 -0.0402509 -0.0244456
    length 3.5433
    axis -0.001389 0.000121451 1.30017e-006 xyz
  end
  begin
    id 12
    name LeftShoulder1
    direction 0.99951 -0.000327763 0.0313091
    length 4.05031
    axis -0.001389 0.000121451 1.30017e-006 xyz
    dof rx ry rz
  end
  begin
    id 13
    name LeftArm
    direction 0.998561 -0.00100056 -0.0536182
    length 10.3537
    axis -23.1894 0.134784 0.967509 xyz
    dof rx ry rz
  end
  begin
    id 14
    name LeftForeArm
    direction 0.998903 0.00866432 0.046012
    length 8.70632
    axis -9.91835 -0.06569 -0.177794 xyz
    dof rx ry rz
  end
  begin
    id 15
    name LeftHand
    direction 0 0 0
    length 0
    axis 0 0 0 xyz
    dof rx ry rz
  end
  begin
    id 16
    name RightShoulderDummy
    direction -0.998891 -0.0402509 -0.0244414
    length 3.5433
    axis -0.001389 0.000121451 1.30017e-006 xyz
  end
  begin
    id 17
    name RightShoulder
    direction -0.99951 -0.000327807 0.0313133
    length 4.05031
    axis 0.215806 0.000203643 -0.0068026 xyz
    dof rx ry rz
  end
  begin
    id 18
    name RightArm
    direction -0.998573 -0.000999564 -0.053403
    length 10.3947
    axis -23.2009 -0.134239 -0.964101 xyz
    dof rx ry rz
  end
  begin
    id 19
    name RightForeArm
    direction -0.998898 0.00868028 0.0461306
    length 8.68355
    axis -9.92322 0.0658061 0.178868 xyz
    dof rx ry rz
  end
  begin
    id 20
    name RightHand
    direction 0 0 0
    length 0
    axis 0 0 0 xyz
    dof rx ry rz
  end
  begin
    id 21
    name LeftUpLegDummy
    direction 0.718183 -0.695806 0.00816078
    length 4.904
    axis 0 0 0 xyz
  end
  begin
    id 22
    name LeftUpLeg
    direction -6.81752e-006 -0.995793 0.0916337
    length 17.4976
    axis -3.48766 0.00143442 -0.000524262 xyz
    dof rx ry rz
  end
  begin
    id 23
    name LeftLeg
    direction -0.00601358 -0.995091 -0.0987824
    length 16.5821
    axis 3.68178 -0.00654042 -0.000285133 xyz
    dof rx ry rz
  end
  begin
    id 24
    name LeftFoot
    direction -0.00417578 -0.460984 0.887399
    length 3.77069
    axis 1.87233e-006 4.66016e-005 -8.6538e-006 xyz
    dof rx ry rz
  end
  begin
    id 25
    name LeftToes
    direction 0 0 0
    length 0
    axis 0 0 0 xyz
    dof rx ry rz
  end
:hierarchy
  begin
    root RightUpLegDummy SpineDummy LeftUpLegDummy
    RightUpLegDummy RightUpLeg
    RightUpLeg RightLeg
    RightLeg RightFoot
    RightFoot RightToes
    SpineDummy Spine
    Spine Spine1
    Spine1 HEadDummy LeftShoulder1Dummy RightShoulderDummy
    HEadDummy HEad
    LeftShoulder1Dummy LeftShoulder1
    LeftShoulder1 LeftArm
    LeftArm LeftForeArm
    LeftForeArm LeftHand
    RightShoulderDummy RightShoulder
    RightShoulder RightArm
    RightArm RightForeArm
    RightForeArm RightHand
    LeftUpLegDummy LeftUpLeg
    LeftUpLeg LeftLeg
    LeftLeg LeftFoot
    LeftFoot LeftToes
  end

:SAMPLES-PER-SECOND 30
:FULLY-SPECIFIED
:DEGREES
160
root  -63.9319 41.2842 -1.79094 175.492 -87.7699 178.583
RightUpLeg  -2.28675 -8.69425 -5.79982
RightLeg  6.3908 -0.998791 3.50596
RightFoot  3.04358 0.0369356 -0.127368
RightToes  0.000481921 0.542163 -0.142578
Spine  0.371915 -1.11496 -2.39913
Spine1  7.94297 -2.38947 5.71475
HEad  -12.7275 -11.2684 1.1517
LeftShoulder1  6.36595 -11.296 -36.9014
LeftArm  -18.1017 -11.8395 -11.0339
LeftForeArm  48.4738 -55.298 -12.164
LeftHand  -0.25398 0.0180481 5.50724
RightShoulder  4.06893 7.32063 31.646
RightArm  -23.8528 -17.9954 28.0389
RightForeArm  5.03498 15.9383 3.75016
RightHand  -1.54986 6.23997 -15.7798
LeftUpLeg  2.90177 6.9642 2.08552
LeftLeg  10.6583 5.5336 -0.0617334
LeftFoot  -6.66033 0.0279973 0.42532
LeftToes  1.06246e-005 4.65868e-005 -8.65514e-006
161
root  -64.3226 41.2952 -1.81606 170.547 -86.6797 -176.269
RightUpLeg  -2.09539 -8.37522 -5.3282
RightLeg  6.44945 -0.203912 3.48479
RightFoot  2.70271 0.0384428 -0.162645
RightToes  0.000481921 0.542163 -0.142578
Spine  0.068616 -0.930768 -0.141465
Spine1  7.65698 -1.72973 3.78657
HEad  -12.0072 -10.5315 0.865887
LeftShoulder1  6.0457 -11.1449 -35.1982
LeftArm  -14.3687 -9.21998 -10.0149
LeftForeArm  44.7835 -48.4561 -9.39595
LeftHand  -0.25398 0.0180481 5.50724
RightShoulder  3.65091 6.78396 29.5181
RightArm  -24.24 -14.945 23.8862
RightForeArm  5.25514 15.4923 3.60157
RightHand  -1.58974 5.94005 -16.5739
LeftUpLeg  3.56363 7.37444 2.56065
LeftLeg  10.5242 6.17011 -0.0467278
LeftFoot  -7.26984 0.0411735 0.22126
LeftToes  1.06246e-005 4.65868e-005 -8.65514e-006
162
root  -64.6772 41.3003 -1.83279 170.092 -85.7169 -175.645
RightUpLeg  -2.03688 -8.215 -5.05089
RightLeg  6.79821 0.566 3.47271
RightFoot  2.39179 0.0825029 -0.549922
RightToes  0.000481921 0.542163 -0.142578
Spine  0.00226968 -0.686267 1.7137
Spine1  7.26595 -1.10687 2.23927
HEad  -11.2807 -9.65742 0.664879
LeftShoulder1  5.59919 -10.7462 -33.2474
LeftArm  -11.1544 -7.58917 -9.16203
LeftForeArm  40.7494 -38.7784 -6.4512
LeftHand  -0.25398 0.0180481 5.50724
RightShoulder  3.23467 6.28909 26.9894
RightArm  -24.0945 -12.1708 19.1501
RightForeArm  4.8986 14.5461 3.50255
RightHand  -1.58442 5.71888 -16.8309
LeftUpLeg  4.23847 7.58651 2.81448
LeftLeg  10.2296 6.95006 -0.0718187
LeftFoot  -7.64823 0.0448528 0.15127
LeftToes  1.06246e-005 4.65868e-005 -8.65514e-006
163
root  -64.9945 41.3127 -1.86231 169.814 -85.0956 -175.187
RightUpLeg  -1.92127 -8.06138 -4.83529
RightLeg  7.03668 1.00836 3.40912
RightFoot  1.88937 0.105581 -0.797708
RightToes  0.000481921 0.542163 -0.142578
Spine  0.0374721 -0.488261 2.59925
Spine1  6.93496 -0.845504 1.98068
HEad  -10.8034 -8.33493 0.12708
LeftShoulder1  5.20919 -10.2664 -31.7905
LeftArm  -8.30408 -6.65517 -7.65735
LeftForeArm  36.1721 -28.0187 -4.23052
LeftHand  -0.25398 0.0180481 5.50724
RightShoulder  2.69296 5.54739 23.5279
RightArm  -24.4451 -9.2853 14.7501
RightForeArm  4.61542 13.0401 3.28831
RightHand  -1.60083 5.81761 -16.8565
LeftUpLeg  4.86498 7.5821 3.02357
LeftLeg  9.77459 7.61029 -0.187857
LeftFoot  -7.81805 0.0432925 0.150548
LeftToes  1.06246e-005 4.65868e-005 -8.65514e-006
164
root  -65.2814 41.3284 -1.90477 168.277 -84.7473 -173.5
RightUpLeg  -1.63241 -7.95378 -4.62346
RightLeg  7.00417 1.25073 3.45339
RightFoot  1.46163 0.102114 -0.822094
RightToes  0.000481921 0.542163 -0.142578
Spine  0.185829 -0.409437 3.05648
Spine1  6.66912 -0.828059 2.20547
HEad  -10.8761 -6.72899 -0.411341
LeftShoulder1  4.82175 -9.79142 -30.201
LeftArm  -7.9602 -5.90793 -5.68951
LeftForeArm  31.3888 -16.8199 -4.0215
LeftHand  -0.25398 0.0180481 5.50724
RightShoulder  2.07909 4.50174 19.5591
RightArm  -25.4155 -6.26988 11.1123
RightForeArm  2.9801 11.2927 3.02481
RightHand  -1.70534 6.04764 -17.5732
LeftUpLeg  5.47146 7.53313 3.36858
LeftLeg  9.30721 7.98485 -0.375106
LeftFoot  -8.0021 0.046189 0.0662131
LeftToes  1.06246e-005 4.65868e-005 -8.65514e-006
165
root  -65.5496 41.3415 -1.96191 166.604 -84.5028 -171.624
RightUpLeg  -1.39891 -7.90452 -4.4045
RightLeg  6.94698 1.41636 3.58626
RightFoot  1.26364 0.111476 -0.960914
RightToes  0.000481921 0.542163 -0.142578
Spine  0.565058 -0.452396 3.76911
Spine1  5.85232 -0.691973 1.47169
HEad  -10.722 -5.09136 -0.540771
LeftShoulder1  4.2279 -9.3195 -26.8314
LeftArm  -13.2085 -4.29436 -4.55925
LeftForeArm  30.1685 -6.46136 -5.3609
LeftHand  -0.25398 0.0180481 5.50724
RightShoulder  1.65859 3.65642 16.4842
RightArm  -26.1258 -3.96263 7.54644
RightForeArm  -1.2011 9.89481 2.98631
RightHand  -1.83999 6.04222 -18.9162
LeftUpLeg  5.98758 7.47669 3.75541
LeftLeg  8.8541 8.21327 -0.574224
LeftFoot  -8.20443 0.0524883 -0.116235
LeftToes  1.06246e-005 4.65868e-005 -8.65514e-006
166
root  -65.802 41.3545 -2.03502 165.438 -84.3125 -170.122
RightUpLeg  -1.35242 -7.77537 -4.11787
RightLeg  6.94124 1.40098 3.62061
RightFoot  1.07376 0.128899 -1.19624
RightToes  0.000481921 0.542163 -0.142578
Spine  0.740464 -0.468697 4.02564
Spine1  5.26718 -0.686481 1.38826
HEad  -10.9049 -3.46724 -0.82339
LeftShoulder1  3.66204 -8.51256 -24.2284
LeftArm  -14.0394 -2.06222 -3.33656
LeftForeArm  25.0829 -0.6253 -4.1261
LeftHand  -0.25398 0.0180481 5.50724
RightShoulder  1.21581 2.59741 12.9272
RightArm  -26.7045 -2.06167 4.88818
RightForeArm  -5.95941 9.08565 3.13656
RightHand  -1.99105 6.14239 -20.2338
LeftUpLeg  6.27756 7.35191 4.05796
LeftLeg  8.4585 8.46443 -0.699577
LeftFoot  -8.31067 0.0569076 -0.261563
LeftToes  1.06246e-005 4.65868e-005 -8.65514e-006
167
root  -66.0348 41.3687 -2.11748 164.038 -84.2391 -168.309
RightUpLeg  -1.35417 -7.52483 -3.74498
RightLeg  6.83182 1.13381 3.53295
RightFoot  0.773592 0.138911 -1.31223
RightToes  0.000481921 0.542163 -0.142578
Spine  0.817999 -0.448769 4.04162
Spine1  4.754 -0.722526 1.63515
HEad  -11.3263 -1.88941 -0.877192
LeftShoulder1  3.10894 -7.38289 -22.2107
LeftArm  -16.243 0.853076 -1.54335
LeftForeArm  22.9578 0.460478 -2.69394
LeftHand  -0.25398 0.0180481 5.50724
RightShoulder  0.817627 1.38452 9.3753
RightArm  -27.8884 -0.802772 2.9035
RightForeArm  -8.6983 9.10587 3.13671
RightHand  -2.16236 6.59677 -21.1204
LeftUpLeg  6.33084 7.24871 4.33188
LeftLeg  8.22896 8.62244 -0.727053
LeftFoot  -8.35471 0.0587855 -0.31486
LeftToes  1.06246e-005 4.65868e-005 -8.65514e-006
